<svg xmlns="http://www.w3.org/2000/svg" width="72" height="72" viewBox="0 0 72 72">
	<path class="st0" d="M19.5,28H45c1.2,0,2.1,1,2.1,2.1c0,1.2-1,2.1-2.1,2.1H19.5c-1.2,0-2.1-1-2.1-2.1C17.4,29,18.4,28,19.5,28M19.5,16.3H45c1.2,0,2.1,1,2.1,2.1c0,1.2-1,2.1-2.1,2.1H19.5c-1.2,0-2.1-1-2.1-2.1C17.4,17.3,18.4,16.3,19.5,16.3 M38.7,44H19.5c-1.2,0-2.1-1-2.1-2.1c0-1.2,1-2.1,2.1-2.1h23.9c2.3-1.3,5-2.1,7.9-2.1c1.9,0,3.6,0.3,5.3,0.9V12.1c0-3.5-2.9-6.4-6.4-6.4H14.2c-3.5,0-6.4,2.9-6.4,6.4v44.6c0,3.5,2.9,6.4,6.4,6.4h24.5c-2-2.7-3.2-6-3.2-9.6C35.5,49.9,36.7,46.6,38.7,44 M58.9,51.4l-7.5,7.5c-0.8,0.8-2.2,0.8-3,0l-4.5-4.5c-0.8-0.8-0.8-2.2,0-3c0.8-0.8,2.2-0.8,3,0l3,3l6-6c0.8-0.8,2.2-0.8,3,0C59.8,49.2,59.8,50.6,58.9,51.4 M51.4,40.8c-7,0-12.8,5.7-12.8,12.8s5.7,12.8,12.8,12.8s12.8-5.7,12.8-12.8S58.4,40.8,51.4,40.8"/>
</svg>
