<svg xmlns="http://www.w3.org/2000/svg" width="72" height="72" viewBox="0 0 72 72">
	<path d="M50.6,30.2l-6.2,6c-0.2,0.2-0.3,0.6-0.3,0.9l1.5,8.5c0.1,0.8-0.7,1.4-1.5,1.1l-7.6-4c-0.3-0.2-0.6-0.2-0.9,0l-7.6,4c-0.7,0.4-1.6-0.2-1.5-1.1l1.5-8.5c0.1-0.3-0.1-0.7-0.3-0.9l-6.2-6c-0.6-0.6-0.3-1.6,0.6-1.7l8.5-1.2c0.3,0,0.6-0.3,0.8-0.5l3.8-7.7c0.4-0.7,1.4-0.7,1.8,0l3.8,7.7c0.1,0.3,0.4,0.5,0.8,0.5l8.5,1.2C50.8,28.6,51.2,29.6,50.6,30.2 M55.1,6.5H16.9c-3.5,0-6.4,2.9-6.4,6.4v50.6c0,0.9,1.1,1.4,1.8,0.8l5.7-5.7c0.4-0.4,1.1-0.4,1.5,0l6.7,6.7c0.4,0.4,1.1,0.4,1.5,0l7-7c0.4-0.4,1.1-0.4,1.5,0l7,7c0.4,0.4,1.1,0.4,1.5,0L52,58c0.4-0.4,1.1-0.4,1.5,0l6.2,6.2c0.7,0.7,1.8,0.2,1.8-0.8V12.8C61.5,9.3,58.6,6.5,55.1,6.5"/>
</svg>
