<?xml version="1.0" encoding="utf-8"?>
<!-- Generator: Adobe Illustrator 23.1.0, SVG Export Plug-In . SVG Version: 6.00 Build 0)  -->
<svg version="1.1" id="圖層_1" xmlns="http://www.w3.org/2000/svg" xmlns:xlink="http://www.w3.org/1999/xlink" x="0px" y="0px"
	 viewBox="0 0 72 72" style="enable-background:new 0 0 72 72;" xml:space="preserve">
<style type="text/css">
	.st0{fill-rule:evenodd;clip-rule:evenodd;}
</style>
<path class="st0" d="M36,7.7C20.4,7.7,7.7,20.4,7.7,36S20.4,64.3,36,64.3S64.3,51.6,64.3,36S51.6,7.7,36,7.7z M28.3,48.2L18.1,38
	c-1.1-1.1-1.1-2.9,0-4c1.1-1.1,2.9-1.1,4,0l8.2,8.2l19.5-19.5c1.1-1.1,2.9-1.1,4,0c1.1,1.1,1.1,2.9,0,4L32.3,48.2
	C31.2,49.3,29.4,49.3,28.3,48.2z"/>
</svg>
