<?xml version="1.0" encoding="utf-8"?>
<!-- Generator: Adobe Illustrator 23.1.0, SVG Export Plug-In . SVG Version: 6.00 Build 0)  -->
<svg version="1.1" id="圖層_1" xmlns="http://www.w3.org/2000/svg" xmlns:xlink="http://www.w3.org/1999/xlink" x="0px" y="0px"
	 viewBox="0 0 72 72" style="enable-background:new 0 0 72 72;" xml:space="preserve">
<g>
	<path d="M20.4,37.6L36,22.2l15.6,15.5c1,1,2.6,1,3.5,0c1-1,1-2.6,0-3.5L37.8,16.9c-0.9-0.9-2.6-0.9-3.5,0L16.9,34.1
		c-1,1-1,2.6,0,3.5C17.9,38.6,19.5,38.6,20.4,37.6z"/>
	<path d="M37.8,34.3c-0.9-0.9-2.6-0.9-3.5,0L16.9,51.6c-1,1-1,2.6,0,3.5c1,1,2.6,1,3.5,0L36,39.6l15.6,15.5c1,1,2.6,1,3.5,0
		c1-1,1-2.6,0-3.5L37.8,34.3z"/>
</g>
</svg>
