<?xml version="1.0" encoding="utf-8"?>
<!-- Generator: Adobe Illustrator 23.1.0, SVG Export Plug-In . SVG Version: 6.00 Build 0)  -->
<svg version="1.1" id="圖層_1" xmlns="http://www.w3.org/2000/svg" xmlns:xlink="http://www.w3.org/1999/xlink" x="0px" y="0px"
	 viewBox="0 0 72 72" style="enable-background:new 0 0 72 72;" xml:space="preserve">
<style type="text/css">
	.st0{fill-rule:evenodd;clip-rule:evenodd;fill:url(#SVGID_1_);}
</style>
<linearGradient id="SVGID_1_" gradientUnits="userSpaceOnUse" x1="-264.1563" y1="426.5491" x2="-263.0938" y2="425.4866" gradientTransform="matrix(56 0 0 -56 14799 23893)">
	<stop  offset="0" style="stop-color:#FFA080"/>
	<stop  offset="1" style="stop-color:#FF4757"/>
</linearGradient>
<path class="st0" d="M49.5,22.5c-0.8-0.8-2.2-0.8-3,0L36,33L25.5,22.5c-0.8-0.8-2.2-0.8-3,0s-0.8,2.2,0,3L33,36L22.5,46.5
	c-0.8,0.8-0.8,2.2,0,3c0.8,0.8,2.2,0.8,3,0L36,39l10.5,10.5c0.8,0.8,2.2,0.8,3,0c0.8-0.8,0.8-2.2,0-3L39,36l10.5-10.5
	C50.4,24.7,50.4,23.3,49.5,22.5 M36,61.5c-14.1,0-25.5-11.4-25.5-25.5S21.9,10.5,36,10.5c14.1,0,25.5,11.4,25.5,25.5
	C61.5,50.1,50.1,61.5,36,61.5 M36,6.3C19.6,6.3,6.3,19.6,6.3,36c0,16.4,13.3,29.8,29.8,29.8c16.4,0,29.8-13.3,29.8-29.8
	S52.4,6.3,36,6.3"/>
</svg>
