<?xml version="1.0" encoding="utf-8"?>
<!-- Generator: Adobe Illustrator 23.1.0, SVG Export Plug-In . SVG Version: 6.00 Build 0)  -->
<svg version="1.1" id="圖層_1" xmlns="http://www.w3.org/2000/svg" xmlns:xlink="http://www.w3.org/1999/xlink" x="0px" y="0px"
	 viewBox="0 0 72 72" style="enable-background:new 0 0 72 72;" xml:space="preserve">
<style type="text/css">
	.st0{fill-rule:evenodd;clip-rule:evenodd;}
</style>
<path class="st0" d="M36,14.1c16.3,0,29.5,15,33.2,19.6c1.1,1.4,1.1,3.2,0,4.5C65.5,42.9,52.3,57.9,36,57.9S6.5,42.9,2.8,38.3
	c-1.1-1.4-1.1-3.2,0-4.5C6.5,29.1,19.7,14.1,36,14.1z M36,20.1c-8.8,0-15.8,7.1-15.8,15.8S27.2,51.9,36,51.9S51.8,44.8,51.8,36
	S44.8,20.2,36,20.1L36,20.1z M36,25.1c6,0,10.9,4.9,10.9,10.9c0,6-4.9,10.9-10.9,10.9S25.1,42,25.1,36C25.1,30,30,25.1,36,25.1
	L36,25.1z M35.2,29.1c-3.3,0-6,2.7-6.1,6.1h3.6c0-1.4,1.1-2.5,2.5-2.5L35.2,29.1z"/>
</svg>
