<?xml version="1.0" encoding="utf-8"?>
<!-- Generator: Adobe Illustrator 23.1.0, SVG Export Plug-In . SVG Version: 6.00 Build 0)  -->
<svg version="1.1" id="圖層_1" xmlns="http://www.w3.org/2000/svg" xmlns:xlink="http://www.w3.org/1999/xlink" x="0px" y="0px"
	 viewBox="0 0 72 72" style="enable-background:new 0 0 72 72;" xml:space="preserve">
<style type="text/css">
	.st0{fill-rule:evenodd;clip-rule:evenodd;}
</style>
<path class="st0" d="M12.9,10l6.7,6.7l5.5,5.5h0l3.5,3.5h0l1.4,1.4l3.8,3.8l10.2,10.2l3.5,3.5h0L49,46l12,12l-4,4l-9-9
	c-3.7,1.6-7.8,2.6-12,2.6c-16.3,0-29.5-15-33.2-19.6c-1.1-1.4-1.1-3.2,0-4.5c1.9-2.3,6.1-7.3,12-11.6L8.9,14C8.9,14,12.9,10,12.9,10
	z M20.2,33.8c0,8.8,7.1,15.9,15.8,15.9c2.5,0,4.9-0.6,7-1.6l-3.8-3.8c-1,0.3-2.1,0.5-3.2,0.5c-6,0-10.9-4.9-10.9-10.9
	c0-1.1,0.2-2.2,0.5-3.2l-3.8-3.8C20.7,28.9,20.2,31.3,20.2,33.8L20.2,33.8z M36,11.9c16.3,0,29.5,15,33.2,19.6
	c1.1,1.4,1.1,3.2,0,4.5c-1.8,2.2-5.7,6.8-11.2,11l-7.3-7.3c0.7-1.8,1.1-3.8,1.1-5.9c0-8.8-7.1-15.8-15.8-15.8
	c-2.1,0-4.1,0.4-5.9,1.2l-5-5C28.5,12.7,32.2,11.9,36,11.9z M36,22.8c6,0,10.9,4.9,10.9,10.9c0,0.7-0.1,1.3-0.2,2L34,23
	C34.7,22.9,35.3,22.8,36,22.8z"/>
</svg>
