<?xml version="1.0" encoding="utf-8"?>
<!-- Generator: Adobe Illustrator 23.1.0, SVG Export Plug-In . SVG Version: 6.00 Build 0)  -->
<svg version="1.1" id="圖層_1" xmlns="http://www.w3.org/2000/svg" xmlns:xlink="http://www.w3.org/1999/xlink" x="0px" y="0px"
	 viewBox="0 0 72 72" style="enable-background:new 0 0 72 72;" xml:space="preserve">
<style type="text/css">
	.st0{fill-rule:evenodd;clip-rule:evenodd;}
</style>
<path class="st0" d="M23.3,31.8v-6.4c0-7,5.7-12.8,12.8-12.8s12.8,5.7,12.8,12.8v6.4H23.3z M38.1,50.4v3.7c0,1.2-1,2.1-2.1,2.1
	s-2.1-1-2.1-2.1v-3.7c-1.6-0.8-2.7-2.4-2.7-4.3c0-2.6,2.1-4.8,4.8-4.8c2.6,0,4.8,2.1,4.8,4.8C40.8,48,39.7,49.6,38.1,50.4z
	 M57.3,31.8h-2.1v-6.4c0-10.6-8.6-19.1-19.1-19.1s-19.1,8.6-19.1,19.1v6.4h-2.1c-2.3,0-4.3,1.9-4.3,4.3v25.5c0,2.3,1.9,4.3,4.3,4.3
	h42.5c2.3,0,4.3-1.9,4.3-4.3V36C61.5,33.7,59.6,31.8,57.3,31.8z"/>
</svg>
