<?xml version="1.0" encoding="utf-8"?>
<!-- Generator: Adobe Illustrator 23.1.0, SVG Export Plug-In . SVG Version: 6.00 Build 0)  -->
<svg version="1.1" id="圖層_1" xmlns="http://www.w3.org/2000/svg" xmlns:xlink="http://www.w3.org/1999/xlink" x="0px" y="0px"
	 viewBox="0 0 72 72" style="enable-background:new 0 0 72 72;" xml:space="preserve">
<style type="text/css">
	.st0{fill-rule:evenodd;clip-rule:evenodd;}
</style>
<path class="st0" d="M53,33.2v5.7h11.3v-5.7H53z M47.3,51.9c2.7,2,6.3,4.7,9.1,6.8c1.1-1.5,2.3-3,3.4-4.5c-2.8-2.1-6.3-4.8-9.1-6.8
	C49.6,48.9,48.5,50.4,47.3,51.9z M59.8,17.9c-1.1-1.5-2.3-3-3.4-4.5c-2.8,2.1-6.3,4.8-9.1,6.8c1.1,1.5,2.3,3,3.4,4.5
	C53.5,22.6,57,20,59.8,17.9z M13.3,27.5c-3.1,0-5.7,2.6-5.7,5.7v5.7c0,3.1,2.5,5.7,5.7,5.7h2.8v11.3h5.7V44.5h2.8L38.8,53V19
	l-14.2,8.5H13.3z M45.9,36c0-3.8-1.6-7.2-4.3-9.5v19C44.3,43.2,45.9,39.8,45.9,36z"/>
</svg>
