<?xml version="1.0" encoding="utf-8"?>
<!-- Generator: Adobe Illustrator 23.1.0, SVG Export Plug-In . SVG Version: 6.00 Build 0)  -->
<svg version="1.1" id="圖層_1" xmlns="http://www.w3.org/2000/svg" xmlns:xlink="http://www.w3.org/1999/xlink" x="0px" y="0px"
	 viewBox="0 0 72 72" style="enable-background:new 0 0 72 72;" xml:space="preserve">
<style type="text/css">
	.st0{fill:none;}
</style>
<path class="st0" d="M17.6,21.8c-5.1,0-9.2,4.1-9.2,9.1V41c0,5,4.1,9.1,9.2,9.1c5.1,0,9.2-4.1,9.2-9.2V30.9
	C26.8,25.9,22.7,21.8,17.6,21.8z M22.2,41c0,2.6-2.1,4.6-4.6,4.6c-2.5,0-4.6-2.1-4.6-4.6V30.9c0-2.6,2.1-4.6,4.6-4.6
	c2.6,0,4.6,2.1,4.6,4.6V41z"/>
<path class="st0" d="M54.4,21.8c-5.1,0-9.2,4.1-9.2,9.1V41c0,5,4.1,9.1,9.2,9.1c5.1,0,9.2-4.1,9.2-9.2V30.9
	C63.6,25.9,59.5,21.8,54.4,21.8z M59.1,41c0,2.6-2.1,4.6-4.6,4.6c-2.6,0-4.6-2.1-4.6-4.6V30.9c0-2.6,2.1-4.6,4.6-4.6h0
	c2.5,0,4.6,2.1,4.6,4.6V41z"/>
<path d="M17.6,26.3c-2.6,0-4.6,2.1-4.6,4.6V41c0,2.6,2.1,4.6,4.6,4.6c2.6,0,4.6-2.1,4.6-4.6V30.9C22.2,28.4,20.1,26.3,17.6,26.3z"/>
<path d="M54.4,26.3L54.4,26.3c-2.6,0-4.6,2.1-4.6,4.6V41c0,2.6,2.1,4.6,4.6,4.6c2.6,0,4.6-2.1,4.6-4.6V30.9
	C59.1,28.4,57,26.3,54.4,26.3z"/>
<path d="M64.3,10.5H44.5c-3.1,0-5.7,2.5-5.7,5.7v39.7c0,3.1,2.5,5.7,5.7,5.7h19.8c3.1,0,5.7-2.5,5.7-5.7V16.2
	C70,13,67.5,10.5,64.3,10.5z M63.6,41c0,5-4.1,9.2-9.2,9.2c-5.1,0-9.2-4.1-9.2-9.1V30.9c0-5,4.1-9.1,9.2-9.1c5.1,0,9.2,4.1,9.2,9.1
	V41z"/>
<path d="M27.5,10.5H7.7C4.5,10.5,2,13,2,16.2v39.7c0,3.1,2.5,5.7,5.7,5.7h19.8c3.1,0,5.7-2.5,5.7-5.7V16.2
	C33.2,13,30.6,10.5,27.5,10.5z M26.8,41c0,5-4.1,9.2-9.2,9.2c-5.1,0-9.2-4.1-9.2-9.1V30.9c0-5,4.1-9.1,9.2-9.1
	c5.1,0,9.2,4.1,9.2,9.1V41z"/>
</svg>
