<?xml version="1.0" encoding="utf-8"?>
<!-- Generator: Adobe Illustrator 23.1.0, SVG Export Plug-In . SVG Version: 6.00 Build 0)  -->
<svg version="1.1" id="圖層_1" xmlns="http://www.w3.org/2000/svg" xmlns:xlink="http://www.w3.org/1999/xlink" x="0px" y="0px"
	 viewBox="0 0 72 72" style="enable-background:new 0 0 72 72;" xml:space="preserve">
<style type="text/css">
	.st0{fill:none;}
</style>
<path class="st0" d="M58.7,44.5c-1.6,0-2.8-1.3-2.8-2.8V30.3c0-1.6,1.3-2.8,2.8-2.8h5.7V19c0-1.6-1.3-2.8-2.8-2.8H37.4v8.6
	c5.6,0.7,9.9,5.5,9.9,11.2c0,5.8-4.3,10.5-9.9,11.2l0,8.6h24.1c1.4,0,2.6-1,2.8-2.4l0-0.4l0-8.5H58.7z"/>
<path class="st0" d="M27.5,36c0,4.2,3.1,7.7,7.1,8.4V27.6C30.6,28.3,27.5,31.8,27.5,36z"/>
<path class="st0" d="M7.7,18.6l0,0.4v8.5h5.7c1.6,0,2.8,1.3,2.8,2.8v11.3c0,1.6-1.3,2.8-2.8,2.8H7.7V53c0,1.4,1,2.6,2.4,2.8l0.4,0
	h24.1v-8.6c-5.6-0.7-9.9-5.5-9.9-11.2c0-5.8,4.3-10.5,9.9-11.2v-8.6H10.5C9.1,16.2,7.9,17.2,7.7,18.6z"/>
<polygon class="st0" points="13.3,30.3 13.3,30.3 7.7,30.3 7.7,41.7 13.3,41.7 "/>
<rect x="58.7" y="30.3" class="st0" width="5.7" height="11.3"/>
<path class="st0" d="M44.5,36c0-4.2-3.1-7.7-7.1-8.4v16.8C41.4,43.7,44.5,40.2,44.5,36z"/>
<path d="M61.5,13.3h-51c-3.1,0-5.7,2.5-5.7,5.7v34c0,3.1,2.5,5.7,5.7,5.7h51c3.1,0,5.7-2.5,5.7-5.7V19
	C67.2,15.9,64.6,13.3,61.5,13.3z M7.7,30.3h5.7l0,0v11.3H7.7V30.3z M34.6,44.4c-4-0.7-7.1-4.2-7.1-8.4c0-4.2,3.1-7.7,7.1-8.4V44.4z
	 M34.6,24.8c-5.6,0.7-9.9,5.5-9.9,11.2c0,5.8,4.3,10.5,9.9,11.2v8.6H10.5l-0.4,0c-1.4-0.2-2.4-1.4-2.4-2.8v-8.5h5.7
	c1.6,0,2.8-1.3,2.8-2.8V30.3c0-1.6-1.3-2.8-2.8-2.8H7.7V19l0-0.4c0.2-1.4,1.4-2.4,2.8-2.4h24.1V24.8z M64.3,53.4
	c-0.2,1.4-1.4,2.4-2.8,2.4H37.4l0-8.6c5.6-0.7,9.9-5.5,9.9-11.2c0-5.8-4.3-10.5-9.9-11.2v-8.6h24.1c1.6,0,2.8,1.3,2.8,2.8v8.5h-5.7
	c-1.6,0-2.8,1.3-2.8,2.8v11.3c0,1.6,1.3,2.8,2.8,2.8h5.7l0,8.5L64.3,53.4z M37.4,44.4V27.6c4,0.7,7.1,4.2,7.1,8.4
	C44.5,40.2,41.4,43.7,37.4,44.4z M64.3,30.3v11.3h-5.7V30.3H64.3z"/>
</svg>
