<?xml version="1.0" encoding="utf-8"?>
<!-- Generator: Adobe Illustrator 23.1.0, SVG Export Plug-In . SVG Version: 6.00 Build 0)  -->
<svg version="1.1" id="圖層_1" xmlns="http://www.w3.org/2000/svg" xmlns:xlink="http://www.w3.org/1999/xlink" x="0px" y="0px"
	 viewBox="0 0 72 72" style="enable-background:new 0 0 72 72;" xml:space="preserve">
<rect x="4.8" y="30.3" width="8.5" height="11.3"/>
<path d="M27.5,36c0,4.2,3.1,7.7,7.1,8.4V27.6C30.6,28.3,27.5,31.8,27.5,36z"/>
<path d="M44.5,36c0-4.2-3.1-7.7-7.1-8.4v16.8C41.4,43.7,44.5,40.2,44.5,36z"/>
<rect x="58.7" y="30.3" width="8.5" height="11.3"/>
<path d="M61.5,13.3H37.4v11.4c5.6,0.7,9.9,5.5,9.9,11.2c0,5.8-4.3,10.5-9.9,11.2v11.4h24.1c3.1,0,5.7-2.5,5.7-5.7v-8.5h-8.5
	c-1.6,0-2.8-1.3-2.8-2.8V30.3c0-1.6,1.3-2.8,2.8-2.8h8.5V19C67.2,15.9,64.6,13.3,61.5,13.3z"/>
<path d="M4.8,19v8.5h8.5c1.6,0,2.8,1.3,2.8,2.8v11.3c0,1.6-1.3,2.8-2.8,2.8H4.8V53c0,3.1,2.5,5.7,5.7,5.7h24.1V47.2
	c-5.6-0.7-9.9-5.5-9.9-11.2c0-5.8,4.3-10.5,9.9-11.2V13.3H10.5C7.4,13.3,4.8,15.9,4.8,19z"/>
</svg>
