<?xml version="1.0" encoding="utf-8"?>
<!-- Generator: Adobe Illustrator 23.1.0, SVG Export Plug-In . SVG Version: 6.00 Build 0)  -->
<svg version="1.1" id="圖層_1" xmlns="http://www.w3.org/2000/svg" xmlns:xlink="http://www.w3.org/1999/xlink" x="0px" y="0px"
	 viewBox="0 0 72 72" style="enable-background:new 0 0 72 72;" xml:space="preserve">
<g>
	<path d="M10.4,25.1c-0.2,1-0.3,2.1-0.4,3.1c-0.5,6.1,1.1,12.3,4.4,17.4L2.4,57.5c-0.6,0.5-0.6,1.4,0,2l6.2,6.2
		c0.3,0.3,0.6,0.4,1,0.4c0.4,0,0.7-0.1,1-0.4l11.9-11.9c5.1,3.3,11.2,4.9,17.4,4.4c1.1-0.1,2.1-0.2,3.1-0.4L10.4,25.1L10.4,25.1z"/>
	<path d="M62.3,54c-4.3,0-7.7,3.5-7.7,7.7c0,4.3,3.5,7.7,7.7,7.7c4.3,0,7.7-3.5,7.7-7.7C70,57.4,66.5,54,62.3,54z"/>
	<path d="M57.5,10.7C46.6-0.2,28.9-0.2,18,10.7v0c-2.7,2.7-4.7,5.8-6.1,9.3l36.3,36.3c3.4-1.4,6.6-3.5,9.3-6.1
		C68.3,39.3,68.3,21.6,57.5,10.7z"/>
</g>
</svg>
