<?xml version="1.0" encoding="utf-8"?>
<!-- Generator: Adobe Illustrator 23.1.0, SVG Export Plug-In . SVG Version: 6.00 Build 0)  -->
<svg version="1.1" id="圖層_1" xmlns="http://www.w3.org/2000/svg" xmlns:xlink="http://www.w3.org/1999/xlink" x="0px" y="0px"
	 viewBox="0 0 72 72" style="enable-background:new 0 0 72 72;" xml:space="preserve">
<style type="text/css">
	.st0{fill:none;}
</style>
<g>
	<path class="st0" d="M21.7,60.3h28.7L54,19.8H18L21.7,60.3z M44.1,25.7c0.1-1.1,1-2,2.2-1.9c1.1,0.1,2,1,1.9,2.2l-2,28.3
		c-0.1,1.1-1,1.9-2,1.9h-0.2c-1.1-0.1-2-1.1-1.9-2.2L44.1,25.7z M34,25.9c0-1.1,0.9-2,2-2s2,0.9,2,2v28.3c0,1.1-0.9,2-2,2
		s-2-0.9-2-2V25.9z M25.7,23.9c1.1-0.1,2.1,0.8,2.2,1.9l2,28.3v0c0.1,1.1-0.8,2.1-1.9,2.2h-0.1c-1.1,0-1.9-0.8-2-1.9l-2-28.3
		C23.8,24.9,24.6,23.9,25.7,23.9z"/>
	<path class="st0" d="M42.1,13.7c0-1.1-0.9-2-2-2H32c-1.1,0-2,0.9-2,2v2h12.1V13.7z"/>
	<path d="M36,56.2c1.1,0,2-0.9,2-2V25.9c0-1.1-0.9-2-2-2s-2,0.9-2,2v28.3C34,55.3,34.9,56.2,36,56.2z"/>
	<path d="M43.9,56.2h0.2c1.1,0,1.9-0.8,2-1.9l2-28.3c0.1-1.1-0.8-2.1-1.9-2.2c-1.1-0.1-2.1,0.8-2.2,1.9l-2,28.3
		C42,55.2,42.8,56.2,43.9,56.2z"/>
	<path d="M60.3,15.8H46.1v-2c0-3.4-2.7-6.1-6.1-6.1H32c-3.4,0-6.1,2.7-6.1,6.1v2H11.7c-1.1,0-2,0.9-2,2s0.9,2,2,2h2.2l3.9,42.7
		c0.1,1,1,1.8,2,1.8h32.4c1,0,1.9-0.8,2-1.8l3.9-42.7h2.2c1.1,0,2-0.9,2-2S61.4,15.8,60.3,15.8z M29.9,13.7c0-1.1,0.9-2,2-2H40
		c1.1,0,2,0.9,2,2v2H29.9V13.7z M50.3,60.3H21.7L18,19.8h36L50.3,60.3z"/>
	<path d="M27.9,56.2h0.1c1.1-0.1,2-1,1.9-2.2v0l-2-28.3c-0.1-1.1-1-2-2.2-1.9c-1.1,0.1-2,1-1.9,2.2l2,28.3
		C26,55.4,26.8,56.2,27.9,56.2z"/>
</g>
</svg>
