<?xml version="1.0" encoding="utf-8"?>
<!-- Generator: Adobe Illustrator 23.1.0, SVG Export Plug-In . SVG Version: 6.00 Build 0)  -->
<svg version="1.1" id="圖層_1" xmlns="http://www.w3.org/2000/svg" xmlns:xlink="http://www.w3.org/1999/xlink" x="0px" y="0px"
	 viewBox="0 0 72 72" style="enable-background:new 0 0 72 72;" xml:space="preserve">
<style type="text/css">
	.st0{fill:none;}
</style>
<path class="st0" d="M61.5,16.2L61.5,16.2h-51c-1.4,0-2.6,1-2.8,2.4l0,0.4v34c0,1.4,1,2.6,2.4,2.8l0.4,0h51c1.4,0,2.6-1,2.8-2.4
	l0-0.4V19C64.3,17.4,63.1,16.2,61.5,16.2z M30.3,47.3V24.7l17,11.3L30.3,47.3z"/>
<polygon points="30.3,47.3 47.3,36 30.3,24.7 "/>
<path d="M61.5,13.3h-51c-3.1,0-5.7,2.5-5.7,5.7v34c0,3.1,2.5,5.7,5.7,5.7h51c3.1,0,5.7-2.5,5.7-5.7V19
	C67.2,15.9,64.6,13.3,61.5,13.3z M64.3,53l0,0.4c-0.2,1.4-1.4,2.4-2.8,2.4h-51l-0.4,0c-1.4-0.2-2.4-1.4-2.4-2.8V19l0-0.4
	c0.2-1.4,1.4-2.4,2.8-2.4h51h0c1.6,0,2.8,1.3,2.8,2.8V53z"/>
</svg>
